<?xml version="1.0" encoding="UTF-8"?>
<svg version="1.1" xmlns="http://www.w3.org/2000/svg" width="100" height="100">
<path d="M0 0 C1.53668865 0.22467831 3.07968054 0.40796805 4.625 0.5625 C5.44226563 0.64628906 6.25953125 0.73007813 7.1015625 0.81640625 C7.72804688 0.87699219 8.35453125 0.93757812 9 1 C9 1.66 9 2.32 9 3 C8.34 3 7.68 3 7 3 C7 3.66 7 4.32 7 5 C8.32 5 9.64 5 11 5 C11 5.66 11 6.32 11 7 C10.34 7.33 9.68 7.66 9 8 C9.5402649 9.77774317 10.10819047 11.54709427 10.6875 13.3125 C11.00074219 14.29863281 11.31398438 15.28476562 11.63671875 16.30078125 C13.27718074 19.54880198 14.80811251 20.37158791 18 22 C22.78914109 26.390046 22.64448553 30.88899459 23 37 C23.59828906 41.50032664 23.59828906 41.50032664 24.42578125 45.9609375 C25.16406059 49.85368309 25.20122531 52.31888437 23.3125 55.875 C20.11220889 60.19971771 20.11220889 60.19971771 17 61 C15.88625 60.938125 14.7725 60.87625 13.625 60.8125 C9.44291373 61.02881481 8.65678113 62.1057628 5.734375 64.87890625 C2.21479723 67.15394864 -1.99512986 66.52643052 -6 66 C-9.125 65 -9.125 65 -11 64 C-11.70125 64.61875 -12.4025 65.2375 -13.125 65.875 C-18.54613295 69.88192435 -23.00166646 70.38399501 -29.53515625 69.5390625 C-35.48573693 68.23766768 -39.63605398 65.11319795 -43 60 C-43 59.34 -43 58.68 -43 58 C-44.98 57.67 -46.96 57.34 -49 57 C-49.93423645 53.98968256 -50.04449911 53.13349732 -49 50 C-50.3921875 49.13375 -50.3921875 49.13375 -51.8125 48.25 C-56.48379052 44.95261845 -56.48379052 44.95261845 -58 42 C-58.34935868 39.63766987 -58.56261988 37.31028044 -58.69140625 34.92578125 C-58.79324219 34.29027344 -58.89507812 33.65476563 -59 33 C-59.66 32.67 -60.32 32.34 -61 32 C-58.525 31.505 -58.525 31.505 -56 31 C-55.67 30.01 -55.34 29.02 -55 28 C-54.05125 27.566875 -53.1025 27.13375 -52.125 26.6875 C-48.27865446 24.61047341 -47.85541186 22.86544138 -46 19 C-41.86303633 14.56753892 -38.95955864 13.41520357 -32.953125 12.9453125 C-31 13 -31 13 -29 14 C-28.95875 13.319375 -28.9175 12.63875 -28.875 11.9375 C-27.27503494 6.56618871 -23.6504507 3.01048002 -18.9375 0.125 C-12.89962254 -2.1873786 -6.00792988 -3.00396494 0 0 Z " fill="#C7ECE5" transform="translate(68,15)"/>
<path d="M0 0 C0 3 0 3 -1 5 C-0.0925 4.95875 0.815 4.9175 1.75 4.875 C4.95126252 4.99812548 6.27989692 5.49925347 9 7 C9.99 7 10.98 7 12 7 C12 8.32 12 9.64 12 11 C12.66 11.33 13.32 11.66 14 12 C14.07420211 16.07502794 14.1286257 20.14979392 14.16479492 24.2253418 C14.17987397 25.61147919 14.2003405 26.99756894 14.22631836 28.38354492 C14.26273716 30.37658146 14.27813018 32.36996723 14.29296875 34.36328125 C14.3086792 35.56251221 14.32438965 36.76174316 14.34057617 37.99731445 C14 41 14 41 12.70996094 42.88720703 C9.79410737 44.78475994 6.43969351 44.49900755 3.0625 44.5625 C-3.22819362 44.6871198 -3.22819362 44.6871198 -9 47 C-12.5 47.5 -12.5 47.5 -16 47 C-19.14663148 43.77268566 -20.23188592 41.16765172 -20.3125 36.75 C-20 33 -20 33 -19 31 C-22.11785113 31.64644661 -22.11785113 31.64644661 -23 34 C-24.32 33.67 -25.64 33.34 -27 33 C-26.01 33 -25.02 33 -24 33 C-23.7525 32.360625 -23.505 31.72125 -23.25 31.0625 C-22 29 -22 29 -19.921875 28.37109375 C-19.28765625 28.24863281 -18.6534375 28.12617187 -18 28 C-18.10441406 27.01 -18.20882812 26.02 -18.31640625 25 C-19.07620217 14.70039942 -19.07620217 14.70039942 -16.2421875 10.22265625 C-12.81278881 7.00832155 -9.7743002 4.56938033 -4.9375 4.5 C-3.968125 4.665 -2.99875 4.83 -2 5 C-1.855625 4.360625 -1.71125 3.72125 -1.5625 3.0625 C-1 1 -1 1 0 0 Z " fill="#6B873B" transform="translate(52,29)"/>
<path d="M0 0 C0.33 0.99 0.66 1.98 1 3 C2.60332791 3.08121924 4.20784026 3.13929134 5.8125 3.1875 C6.70582031 3.22230469 7.59914063 3.25710937 8.51953125 3.29296875 C11.41647515 2.95081002 12.22555028 2.24606427 14 0 C19.6847995 3.72272303 19.6847995 3.72272303 20.49511719 7.00634766 C20.58977776 9.30008525 20.5247641 11.52187731 20.375 13.8125 C20.34792969 14.60076172 20.32085937 15.38902344 20.29296875 16.20117188 C20.22263676 18.13530157 20.11502458 20.06801304 20 22 C15.24186351 21.47791021 11.45582734 20.51870543 7.125 18.5 C1.93324548 16.23105942 -2.35954588 15.28202271 -8 15 C-8.91396333 6.28349788 -8.91396333 6.28349788 -6.734375 3.22265625 C-2.88586957 0 -2.88586957 0 0 0 Z " fill="#E5E0CC" transform="translate(44,37)"/>
<path d="M0 0 C0 0.66 0 1.32 0 2 C2.31 2.66 4.62 3.32 7 4 C7 7.3 7 10.6 7 14 C4.23547967 15.38226016 1.9538637 15.09525387 -1.125 15.0625 C-2.22070312 15.05347656 -3.31640625 15.04445313 -4.4453125 15.03515625 C-5.28835937 15.02355469 -6.13140625 15.01195313 -7 15 C-6.34 13.02 -5.68 11.04 -5 9 C-8.96 9.66 -12.92 10.32 -17 11 C-17.45572917 9.01432292 -17.91145833 7.02864583 -18.3671875 5.04296875 C-18.98007723 2.72257026 -18.98007723 2.72257026 -21 0 C-21 -1.32 -21 -2.64 -21 -4 C-13.35341022 -5.82853234 -6.84474617 -3.60332615 0 0 Z " fill="#CD8250" transform="translate(57,57)"/>
<path d="M0 0 C0.99 0.66 1.98 1.32 3 2 C3.12375 2.61875 3.2475 3.2375 3.375 3.875 C4.28611149 6.97277908 6.52585129 8.03336897 9 10 C9 10.99 9 11.98 9 13 C10.32 13.66 11.64 14.32 13 15 C13 16.98 13 18.96 13 21 C11.02 21.99 11.02 21.99 9 23 C9.01160156 23.63808594 9.02320312 24.27617188 9.03515625 24.93359375 C9.04417969 25.75988281 9.05320312 26.58617188 9.0625 27.4375 C9.07410156 28.26121094 9.08570312 29.08492187 9.09765625 29.93359375 C9 32 9 32 8 33 C6.35769636 33.1245486 4.70947724 33.17568524 3.0625 33.1875 C2.16660156 33.20167969 1.27070312 33.21585938 0.34765625 33.23046875 C-2 33 -2 33 -4 31 C-4.76281072 25.49205787 -3.96733491 20.17719712 -2 15 C-0.375 13.1875 -0.375 13.1875 1 12 C1 11.34 1 10.68 1 10 C0.34 10 -0.32 10 -1 10 C-1.45375 9.38125 -1.9075 8.7625 -2.375 8.125 C-4.10279389 5.86557722 -5.40813228 5.07249699 -8 4 C-4.39703406 3.58823246 -3.21597933 3.8464147 -0.1875 6 C0.534375 6.66 1.25625 7.32 2 8 C1.34 5.36 0.68 2.72 0 0 Z " fill="#819D47" transform="translate(72,30)"/>
<path d="M0 0 C1.04027344 -0.01675781 2.08054687 -0.03351562 3.15234375 -0.05078125 C6.39883551 0.35448551 7.7066041 1.09741627 10.0625 3.3125 C12.08923121 6.35259681 12.26313228 8.70111896 12.0625 12.3125 C8.1875 10.4375 8.1875 10.4375 7.0625 9.3125 C2.41184387 9.76043109 2.41184387 9.76043109 -1.9375 11.3125 C-2.9275 10.6525 -3.9175 9.9925 -4.9375 9.3125 C-6.9271995 8.92236284 -8.92769869 8.58047351 -10.9375 8.3125 C-9.03081983 1.56578555 -6.97920768 0.02588087 0 0 Z " fill="#B7D5CF" transform="translate(61.9375,25.6875)"/>
<path d="M0 0 C0.99 0 1.98 0 3 0 C3 1.32 3 2.64 3 4 C3.66 4.33 4.32 4.66 5 5 C5 14.57 5 24.14 5 34 C4.01 34.495 4.01 34.495 3 35 C3 31.7 3 28.4 3 25 C0.69 24.34 -1.62 23.68 -4 23 C-0.86650268 21.95550089 -0.01031744 22.06576355 3 23 C2.96693723 20.24677259 2.89974574 17.50159629 2.8125 14.75 C2.80669922 13.97269531 2.80089844 13.19539063 2.79492188 12.39453125 C2.60548409 7.35770731 2.60548409 7.35770731 -0.55078125 3.453125 C-1.76314453 2.73382813 -1.76314453 2.73382813 -3 2 C-3.38929687 2.48984375 -3.77859375 2.9796875 -4.1796875 3.484375 C-6.59358392 5.49422867 -8.02563021 5.34036064 -11.125 5.25 C-12.45917969 5.22679687 -12.45917969 5.22679687 -13.8203125 5.203125 C-16 5 -16 5 -17 4 C-17.04063832 2.33382885 -17.042721 0.66611905 -17 -1 C-15.35 -1 -13.7 -1 -12 -1 C-12.33 0.32 -12.66 1.64 -13 3 C-11.68 3 -10.36 3 -9 3 C-9.33 1.68 -9.66 0.36 -10 -1 C-5.88478702 -2.17577514 -3.85826577 -1.72606626 0 0 Z " fill="#6C5851" transform="translate(61,36)"/>
<path d="M0 0 C0 3 0 3 -1 5 C0.65 5 2.3 5 4 5 C4 5.33 4 5.66 4 6 C2.35 6 0.7 6 -1 6 C-0.67 7.32 -0.34 8.64 0 10 C-1.32 10 -2.64 10 -4 10 C-3.67 8.68 -3.34 7.36 -3 6 C-4.65 6 -6.3 6 -8 6 C-8 6.66 -8 7.32 -8 8 C-9.96722008 9.38123963 -11.96868328 10.71488126 -14 12 C-15.66342837 13.66342837 -15.36048097 15.7825709 -15.5625 18.0625 C-15.64628906 18.98160156 -15.73007812 19.90070312 -15.81640625 20.84765625 C-15.87699219 21.55792969 -15.93757813 22.26820312 -16 23 C-13.69 23 -11.38 23 -9 23 C-9 23.33 -9 23.66 -9 24 C-11.31 24 -13.62 24 -16 24 C-15.484375 25.093125 -14.96875 26.18625 -14.4375 27.3125 C-13 31 -13 31 -14 34 C-14.33 32.68 -14.66 31.36 -15 30 C-17.35171131 30.59861742 -19.6859378 31.26924352 -22 32 C-22.33 32.66 -22.66 33.32 -23 34 C-24.32 33.67 -25.64 33.34 -27 33 C-26.01 33 -25.02 33 -24 33 C-23.7525 32.360625 -23.505 31.72125 -23.25 31.0625 C-22 29 -22 29 -19.921875 28.37109375 C-19.28765625 28.24863281 -18.6534375 28.12617187 -18 28 C-18.10441406 27.01 -18.20882812 26.02 -18.31640625 25 C-19.07620217 14.70039942 -19.07620217 14.70039942 -16.2421875 10.22265625 C-12.81278881 7.00832155 -9.7743002 4.56938033 -4.9375 4.5 C-3.968125 4.665 -2.99875 4.83 -2 5 C-1.855625 4.360625 -1.71125 3.72125 -1.5625 3.0625 C-1 1 -1 1 0 0 Z " fill="#6B5A54" transform="translate(52,29)"/>
<path d="M0 0 C0.99 0.66 1.98 1.32 3 2 C3.12375 2.61875 3.2475 3.2375 3.375 3.875 C4.28611149 6.97277908 6.52585129 8.03336897 9 10 C9 10.99 9 11.98 9 13 C10.32 13.66 11.64 14.32 13 15 C13 16.98 13 18.96 13 21 C11.02 21.99 11.02 21.99 9 23 C9 25.64 9 28.28 9 31 C8.67 31 8.34 31 8 31 C7.99742188 29.90300781 7.99484375 28.80601563 7.9921875 27.67578125 C7.95465286 26.22131393 7.91550514 24.76688762 7.875 23.3125 C7.87757812 22.59126953 7.88015625 21.87003906 7.8828125 21.12695312 C7.76923929 18.01788646 7.67716923 15.83684124 5.67675781 13.36474609 C2.72680449 10.75940649 2.72680449 10.75940649 -1 10 C-1.45375 9.38125 -1.9075 8.7625 -2.375 8.125 C-4.10279389 5.86557722 -5.40813228 5.07249699 -8 4 C-4.39703406 3.58823246 -3.21597933 3.8464147 -0.1875 6 C0.534375 6.66 1.25625 7.32 2 8 C1.34 5.36 0.68 2.72 0 0 Z " fill="#6D5E59" transform="translate(72,30)"/>
<path d="M0 0 C0.99 0.33 1.98 0.66 3 1 C2.67 1.66 2.34 2.32 2 3 C1.93003986 4.70702735 1.91559846 6.41668003 1.9375 8.125 C1.95103516 9.49011719 1.95103516 9.49011719 1.96484375 10.8828125 C1.97644531 11.58148438 1.98804688 12.28015625 2 13 C0.20866022 13.05391993 -1.58313899 13.09275571 -3.375 13.125 C-4.37273438 13.14820312 -5.37046875 13.17140625 -6.3984375 13.1953125 C-9 13 -9 13 -11 11 C-10.625 8.875 -10.625 8.875 -10 7 C-8.68 6.67 -7.36 6.34 -6 6 C-6 5.34 -6 4.68 -6 4 C-4.68 4 -3.36 4 -2 4 C-1.34 2.68 -0.68 1.36 0 0 Z " fill="#F1EEE2" transform="translate(31,59)"/>
<path d="M0 0 C2.375 0.25 2.375 0.25 5 1 C6.3125 3.0625 6.3125 3.0625 7 5 C7.99 4.67 8.98 4.34 10 4 C9.5939225 6.3552495 9.35911431 7.67211303 7.5625 9.3125 C5.22161761 11.84065298 4.80670456 14.71112757 4 18 C3.34 18 2.68 18 2 18 C2 14.04 2 10.08 2 6 C0.68 5.34 -0.64 4.68 -2 4 C-1.34 2.68 -0.68 1.36 0 0 Z " fill="#F3F0E4" transform="translate(64,35)"/>
<path d="M0 0 C1.6640625 1.21875 1.6640625 1.21875 3 3 C2.9609375 5.15625 2.9609375 5.15625 2.375 7.5 C2.19710937 8.2734375 2.01921875 9.046875 1.8359375 9.84375 C0.92531648 12.1926416 -0.10841282 13.36968177 -2 15 C-4.56417383 12.43582617 -5.25787287 10.47083523 -5.375 6.9375 C-5 3 -5 3 -3.625 1 C-2 0 -2 0 0 0 Z " fill="#748042" transform="translate(37,59)"/>
<path d="M0 0 C0 0.66 0 1.32 0 2 C-0.66 2 -1.32 2 -2 2 C-2 2.66 -2 3.32 -2 4 C-0.68 4 0.64 4 2 4 C2 4.66 2 5.32 2 6 C-3.94 6 -9.88 6 -16 6 C-16 5.34 -16 4.68 -16 4 C-14.68 3.67 -13.36 3.34 -12 3 C-12.33 2.34 -12.66 1.68 -13 1 C-8.60563789 0.14256349 -4.47427924 -0.08948558 0 0 Z " fill="#FAFDFD" transform="translate(77,16)"/>
<path d="M0 0 C0.33 0 0.66 0 1 0 C1 9.57 1 19.14 1 29 C0.34 29.33 -0.32 29.66 -1 30 C-1 26.7 -1 23.4 -1 20 C-3.31 19.34 -5.62 18.68 -8 18 C-4.86650268 16.95550089 -4.01031744 17.06576355 -1 18 C-1.01160156 16.78441406 -1.02320313 15.56882812 -1.03515625 14.31640625 C-1.04453278 12.73177236 -1.05363313 11.14713682 -1.0625 9.5625 C-1.07087891 8.76005859 -1.07925781 7.95761719 -1.08789062 7.13085938 C-1.0965143 5.08704779 -1.0522815 3.04316098 -1 1 C-0.67 0.67 -0.34 0.34 0 0 Z " fill="#7A645B" transform="translate(65,41)"/>
<path d="M0 0 C1.12329712 0.07069702 1.12329712 0.07069702 2.26928711 0.14282227 C3.07817383 0.19116211 3.88706055 0.23950195 4.72045898 0.28930664 C5.99566406 0.37341797 5.99566406 0.37341797 7.29663086 0.45922852 C8.57763672 0.53753906 8.57763672 0.53753906 9.88452148 0.61743164 C12.00135081 0.74751612 14.1177833 0.88402822 16.23413086 1.02172852 C16.23413086 2.01172852 16.23413086 3.00172852 16.23413086 4.02172852 C13.59413086 4.02172852 10.95413086 4.02172852 8.23413086 4.02172852 C8.23413086 4.68172852 8.23413086 5.34172852 8.23413086 6.02172852 C7.24413086 6.02172852 6.25413086 6.02172852 5.23413086 6.02172852 C5.23413086 5.36172852 5.23413086 4.70172852 5.23413086 4.02172852 C3.25413086 4.02172852 1.27413086 4.02172852 -0.76586914 4.02172852 C-0.76586914 3.36172852 -0.76586914 2.70172852 -0.76586914 2.02172852 C-1.42586914 1.69172852 -2.08586914 1.36172852 -2.76586914 1.02172852 C-1.76586914 0.02172852 -1.76586914 0.02172852 0 0 Z " fill="#DEF4F0" transform="translate(9.765869140625,45.978271484375)"/>
<path d="M0 0 C-0.50603992 2.16874252 -0.99983813 3.99967627 -2 6 C2.62 5.67 7.24 5.34 12 5 C11.67 5.66 11.34 6.32 11 7 C5.72 7 0.44 7 -5 7 C-4.67 6.01 -4.34 5.02 -4 4 C-4.66 3.67 -5.32 3.34 -6 3 C-6.33 2.67 -6.66 2.34 -7 2 C-7.99 1.67 -8.98 1.34 -10 1 C-6.78548731 -0.60725635 -3.56387464 -0.05748185 0 0 Z " fill="#615540" transform="translate(52,66)"/>
<path d="M0 0 C0.33 1.32 0.66 2.64 1 4 C1.66 4.33 2.32 4.66 3 5 C2.01 6.485 2.01 6.485 1 8 C3.0745356 9.2236068 3.0745356 9.2236068 6 9 C6.66 9.33 7.32 9.66 8 10 C4.36576791 12.32590854 1.22911669 12.16265833 -3 12 C-3.33 11.01 -3.66 10.02 -4 9 C-3.34 9 -2.68 9 -2 9 C-1.34 6.03 -0.68 3.06 0 0 Z " fill="#5B4C37" transform="translate(39,64)"/>
<path d="M0 0 C1.65 0 3.3 0 5 0 C4.67 1.32 4.34 2.64 4 4 C5.32 4 6.64 4 8 4 C7.67 2.68 7.34 1.36 7 0 C8.65 0 10.3 0 12 0 C11.34 1.65 10.68 3.3 10 5 C7.36 5 4.72 5 2 5 C1.34 3.35 0.68 1.7 0 0 Z " fill="#CBC3AA" transform="translate(44,35)"/>
<path d="M0 0 C0.33 0.66 0.66 1.32 1 2 C-0.98 2.99 -0.98 2.99 -3 4 C-2.67 5.32 -2.34 6.64 -2 8 C1.3 8.33 4.6 8.66 8 9 C8 9.33 8 9.66 8 10 C6.20841511 10.02696365 4.41671527 10.04637917 2.625 10.0625 C1.62726562 10.07410156 0.62953125 10.08570312 -0.3984375 10.09765625 C-3 10 -3 10 -5 9 C-6.01269438 6.55265524 -6.11191513 5.3560936 -5.3125 2.8125 C-4 1 -4 1 -1.875 0.25 C-1.25625 0.1675 -0.6375 0.085 0 0 Z " fill="#5D4643" transform="translate(24,63)"/>
<path d="M0 0 C1.98 0.99 1.98 0.99 4 2 C3.71872579 3.48117801 3.42466268 4.95993249 3.125 6.4375 C2.96257813 7.26121094 2.80015625 8.08492187 2.6328125 8.93359375 C2.42398438 9.61550781 2.21515625 10.29742187 2 11 C1.01 11.495 1.01 11.495 0 12 C0 8.04 0 4.08 0 0 Z " fill="#809740" transform="translate(36,60)"/>
<path d="M0 0 C1.19882813 0.15275391 1.19882813 0.15275391 2.421875 0.30859375 C3.02515625 0.39238281 3.6284375 0.47617187 4.25 0.5625 C3.92 1.2225 3.59 1.8825 3.25 2.5625 C-0.71 2.5625 -4.67 2.5625 -8.75 2.5625 C-8.75 1.9025 -8.75 1.2425 -8.75 0.5625 C-5.62819599 -0.40411363 -3.22916205 -0.42738909 0 0 Z " fill="#E1F5F2" transform="translate(69.75,19.4375)"/>
<path d="M0 0 C1.12329712 0.07069702 1.12329712 0.07069702 2.26928711 0.14282227 C3.07817383 0.19116211 3.88706055 0.23950195 4.72045898 0.28930664 C5.99566406 0.37341797 5.99566406 0.37341797 7.29663086 0.45922852 C8.57763672 0.53753906 8.57763672 0.53753906 9.88452148 0.61743164 C12.00135081 0.74751612 14.1177833 0.88402822 16.23413086 1.02172852 C16.23413086 1.35172852 16.23413086 1.68172852 16.23413086 2.02172852 C15.25831055 2.08231445 14.28249023 2.14290039 13.27709961 2.20532227 C11.36864258 2.33100586 11.36864258 2.33100586 9.42163086 2.45922852 C8.15706055 2.54043945 6.89249023 2.62165039 5.58959961 2.70532227 C2.24231193 2.89357399 2.24231193 2.89357399 -0.76586914 4.02172852 C-0.76586914 3.36172852 -0.76586914 2.70172852 -0.76586914 2.02172852 C-1.42586914 1.69172852 -2.08586914 1.36172852 -2.76586914 1.02172852 C-1.76586914 0.02172852 -1.76586914 0.02172852 0 0 Z " fill="#F8FCFB" transform="translate(9.765869140625,45.978271484375)"/>
<path d="M0 0 C2.62187494 1.04874998 3.79371361 1.64931313 5.25 4.125 C5.4975 4.74375 5.745 5.3625 6 6 C4.68 5.34 3.36 4.68 2 4 C2 4.66 2 5.32 2 6 C1.01 6 0.02 6 -1 6 C-1 5.34 -1 4.68 -1 4 C-1.66 3.67 -2.32 3.34 -3 3 C-2.01 2.01 -1.02 1.02 0 0 Z " fill="#655D3D" transform="translate(74,41)"/>
<path d="M0 0 C0.33 0 0.66 0 1 0 C1.33 4.95 1.66 9.9 2 15 C-1.2830098 16.6415049 -4.42545033 15.51888624 -8 15 C-8 14.67 -8 14.34 -8 14 C-5.36 14 -2.72 14 0 14 C0 9.38 0 4.76 0 0 Z " fill="#7F9948" transform="translate(79,47)"/>
<path d="M0 0 C1.32 0.33 2.64 0.66 4 1 C4.33 2.65 4.66 4.3 5 6 C4.01 6.66 3.02 7.32 2 8 C1.34 5.36 0.68 2.72 0 0 Z " fill="#F4F1E5" transform="translate(79,44)"/>
<path d="M0 0 C1.32 0.33 2.64 0.66 4 1 C4.33 2.32 4.66 3.64 5 5 C4.01 5 3.02 5 2 5 C1.34 4.34 0.68 3.68 0 3 C0 2.01 0 1.02 0 0 Z " fill="#E6E2D7" transform="translate(75,38)"/>
</svg>
